<svg width="159" height="20" viewBox="0 0 1143 193" fill="none" xmlns="http://www.w3.org/2000/svg">
<rect width="192" height="192" rx="17.4546" fill="#004E96"></rect>
<path fill-rule="evenodd" clip-rule="evenodd" d="M117.602 45.1919C117.576 48.4997 114.907 51.1357 111.623 51.1099C109.108 51.084 106.875 49.4818 106.054 47.0784C103.308 41.7289 96.7649 39.6357 91.4787 42.4267C86.1669 45.1919 84.0883 51.7818 86.8597 57.1054C88.733 60.7234 92.4538 62.9975 96.5083 62.9975C98.5355 62.9975 100.511 62.429 102.231 61.3436C102.564 61.0593 102.924 60.8009 103.308 60.5683C103.437 60.4649 103.565 60.3616 103.693 60.2323L103.745 60.3357C106.696 58.9661 110.211 60.2582 111.571 63.2301C112.931 66.202 111.648 69.7425 108.697 71.1122C108.646 71.138 108.595 71.1638 108.543 71.1897L108.595 71.3189C97.9196 78.038 83.883 74.7818 77.2111 64.0312C77.1342 63.902 77.0572 63.7728 76.9802 63.6178C63.4311 70.2335 54.1675 83.3616 52.4226 98.428C52.4226 98.428 51.3704 104.346 45.2375 104.346C41.4396 104.372 38.3603 101.271 38.3346 97.4459C38.3346 96.3347 38.6169 92.1482 39.0788 91.2178C42.2094 71.0605 55.7072 56.8211 73.9778 49.7402C75.4405 37.1806 86.7314 28.2132 99.2027 29.6862C107.029 30.6165 113.804 35.5525 117.14 42.7368L117.114 42.7626C117.422 43.4862 117.602 44.339 117.602 45.1919ZM135.231 149.881C132.408 148.201 131.459 144.531 133.152 141.663C134.435 139.492 136.924 138.355 139.388 138.82C145.367 139.13 150.448 134.479 150.756 128.457C151.064 122.436 146.445 117.319 140.466 117.009C134.487 116.699 129.406 121.35 129.098 127.372C129.072 127.682 129.072 127.992 129.098 128.302C129.2 128.742 129.226 129.181 129.226 129.62C129.252 129.775 129.277 129.956 129.303 130.111H129.175C129.098 130.964 128.816 131.765 128.405 132.515C126.814 135.357 123.247 136.365 120.424 134.763C118.346 133.574 117.191 131.248 117.473 128.871L117.345 128.845C116.909 116.156 126.763 105.509 139.362 105.044C139.491 105.044 139.619 105.044 139.747 105.044C140.876 89.8999 134.23 75.247 122.144 66.1762C122.144 66.1762 117.602 62.2998 120.681 56.9245C122.554 53.6166 126.737 52.4537 130.022 54.3144C130.022 54.3144 130.022 54.3144 130.047 54.3144C130.997 54.8571 134.461 57.2087 135.026 58.0874C150.756 70.9054 156.222 89.8223 153.168 109.334C163.227 116.931 165.28 131.326 157.736 141.482C153.04 147.788 145.418 151.251 137.617 150.579V150.553C136.77 150.553 135.975 150.294 135.231 149.881ZM35.6402 113.288C38.5142 111.659 42.1325 112.693 43.7234 115.588C44.9552 117.784 44.6729 120.549 43.0306 122.436C40.9264 125.873 40.8751 130.189 42.8766 133.678C45.8533 138.846 52.4226 140.603 57.5548 137.606C62.687 134.608 64.4319 127.992 61.4552 122.824C60.4545 121.066 58.9661 119.645 57.1955 118.689C56.7849 118.559 56.3744 118.353 55.9894 118.146C55.8355 118.094 55.6815 118.017 55.5275 117.965L55.6045 117.862C52.9358 115.924 52.3456 112.176 54.2701 109.489C54.7577 108.817 55.3479 108.248 56.0664 107.835C58.0936 106.646 60.6598 106.801 62.533 108.248L62.61 108.145C73.7469 114.14 77.9553 128.095 72.0019 139.337C71.9506 139.44 71.8993 139.544 71.8223 139.647C84.2423 148.201 100.152 149.726 113.958 143.704C113.958 143.704 119.552 141.663 122.631 147.038C124.556 150.346 123.452 154.584 120.168 156.523C119.218 157.065 115.472 158.926 114.445 158.978C95.5845 166.317 76.6209 161.639 61.4039 149.209C49.8308 154.171 36.4614 148.744 31.5344 137.089C28.4551 129.827 29.3276 121.48 33.8183 114.993H33.8439C34.2802 114.295 34.896 113.727 35.6402 113.288Z" fill="white"></path>
<path d="M339.565 158.707L321.356 124.239H296.887V158.707H265.753V36.2014H320.543C336.74 36.2014 349.259 39.9205 358.099 47.3383C366.98 54.7154 371.431 65.2223 371.431 78.8791C371.431 97.7996 364.033 110.948 349.238 118.305L374.926 158.707H339.565ZM296.887 99.6896H320.543C327.249 99.6896 332.492 98.0231 336.232 94.6495C339.971 91.2963 341.841 86.3985 341.841 79.9359C341.841 73.6562 339.971 68.8803 336.232 65.6287C332.492 62.3364 327.249 60.67 320.543 60.67H296.887V99.6896Z" fill="#004E96"></path>
<path d="M396.031 25.7962C398.999 22.8291 402.819 21.3252 407.493 21.3252C412.147 21.3252 415.968 22.8291 418.955 25.7962C421.923 28.7836 423.426 32.6043 423.426 37.2582C423.426 41.9324 421.923 45.7734 418.955 48.8015C415.968 51.8499 412.147 53.3538 407.493 53.3538C402.819 53.3538 398.999 51.8499 396.031 48.8015C393.044 45.7734 391.56 41.9324 391.56 37.2582C391.56 32.6043 393.044 28.7836 396.031 25.7962ZM422.37 158.707H392.292V64.4093H422.37V158.707Z" fill="#004E96"></path>
<path d="M487.851 63.3521C497.159 63.3521 505.451 65.2014 512.726 68.8798C520.042 72.5176 525.733 77.7202 529.797 84.4877L508.092 97.6568C503.418 91.1129 497.078 87.8206 489.07 87.8206C483.217 87.8206 478.442 90.0154 474.763 94.4052C471.064 98.7949 469.235 104.546 469.235 111.639C469.235 118.853 471.044 124.645 474.682 129.035C478.299 133.425 483.096 135.62 489.07 135.62C497.89 135.62 504.292 132.043 508.255 124.889L530.366 137.896C526.505 144.887 520.875 150.293 513.458 154.073C506.02 157.873 497.362 159.763 487.445 159.763C472.853 159.763 461.106 155.373 452.164 146.594C443.263 137.774 438.833 126.17 438.833 111.801C438.833 97.3316 443.324 85.6664 452.327 76.765C461.371 67.823 473.219 63.3521 487.851 63.3521Z" fill="#004E96"></path>
<path d="M607.827 62.9454C618.232 62.9454 626.564 66.258 632.864 72.8629C639.205 79.4881 642.375 88.2675 642.375 99.2011V158.706H612.054V107.574C612.054 102.107 610.55 97.7785 607.583 94.5675C604.596 91.3769 600.551 89.7714 595.471 89.7714C589.618 89.7714 584.923 91.8849 581.407 96.1121C577.932 100.299 576.205 105.623 576.205 112.126V158.706H545.883V28.8032H576.205V79.9352C582.871 68.8796 593.398 63.2299 607.827 62.9454Z" fill="#004E96"></path>
<path d="M722.983 63.3521C736.314 63.3521 747.004 67.823 755.093 76.765C763.222 85.6664 767.286 97.3926 767.286 111.964C767.286 126.332 763.303 137.896 755.337 146.675C747.411 155.414 736.884 159.763 723.714 159.763C711.358 159.763 701.725 155.211 694.856 146.106V192.686H664.535V64.4088H694.856V76.765C701.847 67.823 711.216 63.3521 722.983 63.3521ZM715.667 135.782C721.946 135.782 727.047 133.486 730.949 128.872C734.892 124.28 736.884 118.366 736.884 111.151C736.884 103.896 734.892 97.982 730.949 93.4297C727.047 88.8774 721.946 86.6012 715.667 86.6012C709.59 86.6012 704.611 88.8774 700.709 93.4297C696.807 97.982 694.856 103.876 694.856 111.07C694.856 118.447 696.766 124.401 700.628 128.954C704.469 133.506 709.489 135.782 715.667 135.782Z" fill="#004E96"></path>
<path d="M825.952 62.9453C838.897 62.9453 848.957 65.9531 856.111 71.9686C863.264 77.9841 866.922 86.3571 867.085 97.0875V158.706H837.495V147.894C831.317 156.023 821.664 160.088 808.556 160.088C798.638 160.088 790.753 157.365 784.9 151.878C779.088 146.411 776.202 139.277 776.202 130.498C776.202 121.556 779.311 114.626 785.55 109.688C791.83 104.708 800.792 102.128 812.458 101.965H837.333V100.583C837.333 95.9291 835.747 92.2913 832.618 89.69C829.529 87.048 824.936 85.7068 818.879 85.7068C810.364 85.7068 800.995 88.3487 790.753 93.592L782.136 73.6757C797.419 66.5221 812.01 62.9453 825.952 62.9453ZM817.904 139.603C822.66 139.603 826.846 138.424 830.423 136.026C834.04 133.648 836.357 130.539 837.333 126.677V118.304H818.229C809.125 118.304 804.572 121.698 804.572 128.466C804.572 131.941 805.731 134.684 808.068 136.676C810.385 138.627 813.677 139.603 817.904 139.603Z" fill="#004E96"></path>
<path d="M950.382 62.9453C960.727 62.9453 969.039 66.2579 975.339 72.8628C981.679 79.488 984.85 88.2674 984.85 99.201V158.706H954.691V107.574C954.691 102.107 953.187 97.7784 950.22 94.5675C947.293 91.3768 943.249 89.7713 938.107 89.7713C932.742 89.7713 928.312 91.5394 924.857 95.0552C921.443 98.5304 919.431 103.103 918.842 108.793V158.706H888.601V64.4085H918.842V79.7725C925.507 68.8389 936.014 63.2298 950.382 62.9453Z" fill="#004E96"></path>
<path d="M1047.67 63.3521C1063.97 63.3521 1076.25 68.3718 1084.5 78.3909C1092.73 88.4303 1096.31 102.189 1095.23 119.687H1028.9C1030.4 125.275 1033.08 129.584 1036.94 132.612C1040.79 135.66 1045.52 137.164 1051.17 137.164C1059.79 137.164 1067.29 133.973 1073.69 127.572L1089.62 143.098C1079.48 154.215 1065.76 159.763 1048.49 159.763C1033.2 159.763 1021.03 155.414 1011.99 146.675C1002.98 137.896 998.494 126.271 998.494 111.801C998.494 97.23 1002.98 85.5241 1011.99 76.6838C1021.03 67.8027 1032.92 63.3521 1047.67 63.3521ZM1028.41 103.428H1066.21C1066.21 97.6974 1064.52 93.0842 1061.17 89.609C1057.86 86.0932 1053.47 84.3251 1048 84.3251C1042.84 84.3251 1038.51 86.0728 1034.99 89.5277C1031.52 92.9419 1029.32 97.5755 1028.41 103.428Z" fill="#004E96"></path>
<path d="M1142.87 158.706H1112.54V28.8032H1142.87V158.706Z" fill="#004E96"></path>
</svg>